<?xml version="1.0" encoding="UTF-8"?>
<svg id="Layer_2" data-name="Layer 2" xmlns="http://www.w3.org/2000/svg" viewBox="0 0 851.28 180.88">
  <defs>
    <style>
      .cls-1 { fill: #81dd45; }
      .cls-2 { fill: #0f4136; }
    </style>
  </defs>
  <g id="Layer_1-2" data-name="Layer 1">
    <g>
      <g>
        <g>
          <path class="cls-2" d="M247.85,42.73c0,18.14,10.46,28.04,25.48,28.04,14.13,0,22.7-7.79,22.7-20.81v-.33h-24.59v-12.57h37.83v45.74h-12.02l-.89-9.35c-4.45,6.23-13.69,10.57-24.7,10.57-22.81,0-38.73-16.58-38.73-41.62S249.07.11,273.55.11c18.58,0,32.94,10.79,35.27,27.37h-15.02c-2.56-9.57-10.79-14.02-20.59-14.02-16.14,0-25.37,11.68-25.37,29.27Z"/>
          <path class="cls-2" d="M368.45,27.82v54.97h-12.58l-1-7.34c-3.34,5.23-10.46,8.79-17.8,8.79-12.69,0-20.14-8.57-20.14-22.03V27.82h13.58v29.6c0,10.46,4.12,14.69,11.68,14.69,8.57,0,12.69-5.01,12.69-15.47v-28.82h13.58Z"/>
          <path class="cls-2" d="M376.1,67.1c0-10.13,7.34-16.47,20.36-17.47l16.47-1.22v-1.22c0-7.46-4.45-10.46-11.35-10.46-8.01,0-12.46,3.34-12.46,9.13h-11.57c0-11.91,9.79-19.7,24.7-19.7s23.92,8.01,23.92,23.26v33.38h-11.91l-1-8.12c-2.34,5.67-9.79,9.57-18.36,9.57-11.68,0-18.81-6.79-18.81-17.14ZM413.04,60.54v-2.89l-11.46.89c-8.46.78-11.68,3.56-11.68,8.01,0,5.01,3.34,7.46,9.46,7.46,8.35,0,13.69-5.01,13.69-13.46Z"/>
          <path class="cls-2" d="M468.32,40.17h-5.01c-9.79,0-15.91,5.23-15.91,15.91v26.71h-13.58V27.93h12.8l.78,8.01c2.34-5.45,7.57-9.13,14.91-9.13,1.89,0,3.78.22,6.01.78v12.58Z"/>
          <path class="cls-2" d="M475.97,55.53c0-17.14,10.02-29.38,26.6-29.38,7.68,0,14.47,3.23,17.92,8.68V0h13.46v82.79h-12.46l-.89-8.57c-3.34,6.34-10.46,10.02-18.81,10.02-15.91,0-25.82-11.69-25.82-28.71ZM520.37,55.08c0-9.9-6.12-16.8-15.58-16.8s-15.25,7.01-15.25,16.8,5.79,16.69,15.25,16.69,15.58-6.79,15.58-16.69Z"/>
          <path class="cls-2" d="M541.59,55.3c0-17.25,11.24-29.15,27.38-29.15s26.93,11.02,26.93,28.15v4.12l-41.4.11c1,9.68,6.12,14.58,15.13,14.58,7.46,0,12.35-2.89,13.91-8.12h12.57c-2.34,12.02-12.35,19.25-26.71,19.25-16.36,0-27.82-11.91-27.82-28.93ZM554.84,49.85h27.6c0-7.57-5.23-12.57-13.35-12.57s-12.91,4.34-14.24,12.57Z"/>
          <path class="cls-2" d="M603.77,55.53c0-17.14,10.02-29.38,26.6-29.38,7.68,0,14.47,3.23,17.92,8.68V0h13.46v82.79h-12.46l-.89-8.57c-3.34,6.34-10.46,10.02-18.81,10.02-15.91,0-25.82-11.69-25.82-28.71ZM648.17,55.08c0-9.9-6.12-16.8-15.58-16.8s-15.25,7.01-15.25,16.8,5.79,16.69,15.25,16.69,15.58-6.79,15.58-16.69Z"/>
          <path class="cls-2" d="M683.64,54.75v28.04h-14.24V1.45h32.16c16.36,0,26.93,10.68,26.93,26.6s-10.68,26.71-26.93,26.71h-17.92ZM683.64,14.13v27.93h14.91c9.79,0,15.02-5.23,15.02-14.13s-5.34-13.8-14.8-13.8h-15.13Z"/>
          <path class="cls-2" d="M736.13,67.1c0-10.13,7.35-16.47,20.36-17.47l16.47-1.22v-1.22c0-7.46-4.45-10.46-11.35-10.46-8.01,0-12.46,3.34-12.46,9.13h-11.57c0-11.91,9.79-19.7,24.7-19.7s23.93,8.01,23.93,23.26v33.38h-11.91l-1-8.12c-2.34,5.67-9.79,9.57-18.36,9.57-11.69,0-18.81-6.79-18.81-17.14ZM773.08,60.54v-2.89l-11.46.89c-8.46.78-11.68,3.56-11.68,8.01,0,5.01,3.34,7.46,9.46,7.46,8.35,0,13.69-5.01,13.69-13.46Z"/>
          <path class="cls-2" d="M795.31,96.92h8.12c5.34,0,8.68-1.22,11.02-7.68l1.56-4.12-22.14-57.31h14.36l14.13,40.06,14.91-40.06h14.02l-26.93,67.21c-4.12,10.24-9.9,14.47-18.92,14.47-3.78,0-7.12-.45-10.13-1.22v-11.35Z"/>
        </g>
        <g>
          <path class="cls-2" d="M247.18,152.84v28.04h-14.24v-81.34h32.16c16.36,0,26.93,10.68,26.93,26.6s-10.68,26.71-26.93,26.71h-17.92ZM247.18,112.22v27.93h14.91c9.79,0,15.02-5.23,15.02-14.13s-5.34-13.8-14.8-13.8h-15.13Z"/>
          <path class="cls-2" d="M334.17,138.26h-5.01c-9.79,0-15.91,5.23-15.91,15.91v26.71h-13.58v-54.86h12.8l.78,8.01c2.34-5.45,7.57-9.13,14.91-9.13,1.89,0,3.78.22,6.01.78v12.58Z"/>
          <path class="cls-2" d="M367.44,123.02c17.03,0,29.38,11.8,29.38,28.93s-12.35,28.93-29.38,28.93-29.38-11.8-29.38-28.93,12.35-28.93,29.38-28.93ZM367.44,168.75c9.35,0,15.8-6.79,15.8-16.8s-6.45-16.8-15.8-16.8-15.8,6.79-15.8,16.8,6.45,16.8,15.8,16.8Z"/>
        </g>
      </g>
      <g>
        <path class="cls-2" d="M121.22,99.29v-24.2c0-1.76,1.43-3.19,3.19-3.19h53.17c1.76,0,3.19,1.43,3.19,3.19v103.61c0,1.17-.95,2.13-2.13,2.13h-3c-.61,0-1.2-.27-1.6-.73l-45.35-51.95c-2.74-2.77-7.46-.83-7.46,3.07h0v46.88c0,.72-.29,1.41-.8,1.93h0c-.51.51-1.2.8-1.93.8h-53.93c-.84,0-1.64-.33-2.23-.91L.98,119.77c-.62-.61-.96-1.43-.96-2.29C.1,109.81.02,71.29,0,63.63c0-.86.34-1.67.95-2.27L62.34.97c.6-.59,1.4-.92,2.24-.92h54.8c1.76,0,3.19,1.43,3.19,3.19v53.84c0,1.76-1.43,3.19-3.19,3.19h-55.29c-1.76,0-3.19,1.43-3.19,3.19v35.82c0,11.77,9.54,21.32,21.32,21.32h17.69c11.77,0,21.32-9.54,21.32-21.32Z"/>
        <path class="cls-1" d="M96.81,109.02h-11.51c-7.06,0-12.79-5.73-12.79-12.79v-24.33h37.09v24.33c0,7.06-5.73,12.79-12.79,12.79Z"/>
      </g>
    </g>
  </g>
</svg>
